<svg xmlns="http://www.w3.org/2000/svg" xmlns:xlink="http://www.w3.org/1999/xlink" width="2084.618" height="1040.904" viewBox="0 0 2084.618 1040.904">
  <defs>
    <linearGradient id="linear-gradient" x1="0.5" x2="0.5" y2="1" gradientUnits="objectBoundingBox">
      <stop offset="0" stop-color="#001a6e"/>
      <stop offset="1" stop-color="#8d00d2"/>
    </linearGradient>
    <linearGradient id="linear-gradient-2" x1="0.5" x2="0.5" y2="1" gradientUnits="objectBoundingBox">
      <stop offset="0" stop-color="#00165b"/>
      <stop offset="1" stop-color="#a700ff"/>
      <stop offset="1" stop-color="#69009c"/>
    </linearGradient>
    <linearGradient id="linear-gradient-3" x1="0.5" x2="0.5" y2="1" gradientUnits="objectBoundingBox">
      <stop offset="0" stop-color="#00165b"/>
      <stop offset="1" stop-color="#9f0070"/>
      <stop offset="1" stop-color="#69009c"/>
    </linearGradient>
  </defs>
  <g id="Group_1" data-name="Group 1" transform="translate(746.309 -57.548)">
    <path id="Path_10" data-name="Path 10" d="M1976.069,565.8c392.5-86.655,586.534,24.382,897.642,0s355.625-77.65,415.263-40.779S3498.645,748.969,3615.884,698s110.782-210.35,229.72-234.138,174.5,46.386,174.5,46.386l-42.478,662.145H1945.485V565.8Z" transform="translate(-2681.794 -401.389)" fill="url(#linear-gradient)"/>
    <path id="Path_9" data-name="Path 9" d="M1976.069,565.8c392.5-86.655,586.534,24.382,897.642,0s355.625-77.65,415.263-40.779S3498.645,748.969,3615.884,698s110.782-210.35,229.72-234.138,174.5,46.386,174.5,46.386l-42.478,662.145H1945.485V565.8Z" transform="translate(-2691.794 -221.452)" fill="url(#linear-gradient-2)"/>
    <path id="Path_8" data-name="Path 8" d="M1976.069,565.8c392.5-86.655,586.534,24.382,897.642,0s355.625-77.65,415.263-40.779S3498.645,748.969,3615.884,698s110.782-210.35,229.72-234.138,174.5,46.386,174.5,46.386l-42.478,662.145H1945.485V565.8Z" transform="translate(-2691.794 -73.937)" fill="url(#linear-gradient-3)"/>
  </g>
</svg>
